# xmcd CD database file
#
# Track frame offsets:
#	150
#	22622
#	43897
#	51086
#	67691
#	87323
#	109850
#	132145
#	155123
#	179346
#
# Disc length: 2563 seconds
#
# Revision: 0
# Processed by: cddbd v1.5.2PL0 Copyright (c) Steve Scherf et al.
# Submitted via: CDex 1.79
#
DISCID=7b0a010a
DTITLE=Heigh Chief. - Heigh Chief.
DYEAR=2017
DGENRE=Blues
TTITLE0=Heigh Chief. - Missing Out
TTITLE1=Heigh Chief. - Little Things
TTITLE2=Heigh Chief. - Going South
TTITLE3=Heigh Chief. - Sweet Up My Soul
TTITLE4=Heigh Chief. - Weed, Whites and Wine
TTITLE5=Heigh Chief. - Lady
TTITLE6=Heigh Chief. - Nothing But The Worry
TTITLE7=Heigh Chief. - Amazing Grace
TTITLE8=Heigh Chief. - What She Does To Me
TTITLE9=Heigh Chief. - Blinded By Love
EXTD=YEAR: 2017
EXTT0=
EXTT1=
EXTT2=
EXTT3=
EXTT4=
EXTT5=
EXTT6=
EXTT7=
EXTT8=
EXTT9=
PLAYORDER=
